<svg xmlns="http://www.w3.org/2000/svg" viewBox="0 0 800 450" width="100%" height="100%">
  <rect width="800" height="450" fill="#0d0d11" rx="16"/>
  <rect x="2" y="2" width="796" height="446" fill="none" stroke="#1e2330" stroke-width="2" rx="14"/>

  <!-- Left Container: Dense Amber Matrix -->
  <rect x="50" y="80" width="320" height="290" rx="8" fill="#000000" stroke="#1e2330" stroke-width="1.5"/>
  <g transform="translate(60, 90)">
    <!-- 10x9 Dense Amber Blocks -->
    <rect x="0" y="0" width="28" height="28" fill="#f59e0b"/>
    <rect x="30" y="0" width="28" height="28" fill="#d97706"/>
    <rect x="60" y="0" width="28" height="28" fill="#b45309"/>
    <rect x="90" y="0" width="28" height="28" fill="#f59e0b"/>
    <rect x="120" y="0" width="28" height="28" fill="#78350f"/>
    <rect x="150" y="0" width="28" height="28" fill="#451a03"/>
    <rect x="180" y="0" width="28" height="28" fill="#290f02"/>
    <rect x="210" y="0" width="28" height="28" fill="#451a03"/>
    <rect x="240" y="0" width="28" height="28" fill="#78350f"/>
    <rect x="270" y="0" width="28" height="28" fill="#b45309"/>

    <rect x="0" y="30" width="28" height="28" fill="#fbbf24"/>
    <rect x="30" y="30" width="28" height="28" fill="#f59e0b"/>
    <rect x="60" y="30" width="28" height="28" fill="#d97706"/>
    <rect x="90" y="30" width="28" height="28" fill="#b45309"/>
    <rect x="120" y="30" width="28" height="28" fill="#451a03"/>
    <rect x="150" y="30" width="28" height="28" fill="#290f02"/>
    <rect x="180" y="30" width="28" height="28" fill="#451a03"/>
    <rect x="210" y="30" width="28" height="28" fill="#78350f"/>
    <rect x="240" y="30" width="28" height="28" fill="#b45309"/>
    <rect x="270" y="30" width="28" height="28" fill="#d97706"/>

    <rect x="0" y="60" width="28" height="28" fill="#f59e0b"/>
    <rect x="30" y="60" width="28" height="28" fill="#fbbf24"/>
    <rect x="60" y="60" width="28" height="28" fill="#f59e0b"/>
    <rect x="90" y="60" width="28" height="28" fill="#d97706"/>
    <rect x="120" y="60" width="28" height="28" fill="#78350f"/>
    <rect x="150" y="60" width="28" height="28" fill="#451a03"/>
    <rect x="180" y="60" width="28" height="28" fill="#290f02"/>
    <rect x="210" y="60" width="28" height="28" fill="#451a03"/>
    <rect x="240" y="60" width="28" height="28" fill="#78350f"/>
    <rect x="270" y="60" width="28" height="28" fill="#b45309"/>
  </g>

  <!-- Right Container: Rounded Green Matrix Grid -->
  <rect x="430" y="80" width="320" height="290" rx="8" fill="#000000" stroke="#1e2330" stroke-width="1.5"/>
  <g transform="translate(442, 95)">
    <!-- 14x10 Rounded Green Matrix Cells -->
    <rect x="0" y="0" width="16" height="16" rx="4" fill="#22c55e"/>
    <rect x="20" y="0" width="16" height="16" rx="4" fill="#16a34a"/>
    <rect x="40" y="0" width="16" height="16" rx="4" fill="#15803d"/>
    <rect x="60" y="0" width="16" height="16" rx="4" fill="#4ade80"/>
    <rect x="80" y="0" width="16" height="16" rx="4" fill="#16a34a"/>
    <rect x="100" y="0" width="16" height="16" rx="4" fill="#14532d"/>
    <rect x="120" y="0" width="16" height="16" rx="4" fill="#052e16"/>
    <rect x="140" y="0" width="16" height="16" rx="4" fill="#14532d"/>
    <rect x="160" y="0" width="16" height="16" rx="4" fill="#15803d"/>
    <rect x="180" y="0" width="16" height="16" rx="4" fill="#16a34a"/>
    <rect x="200" y="0" width="16" height="16" rx="4" fill="#22c55e"/>
    <rect x="220" y="0" width="16" height="16" rx="4" fill="#4ade80"/>
    <rect x="240" y="0" width="16" height="16" rx="4" fill="#16a34a"/>
    <rect x="260" y="0" width="16" height="16" rx="4" fill="#15803d"/>

    <rect x="0" y="20" width="16" height="16" rx="4" fill="#4ade80"/>
    <rect x="20" y="20" width="16" height="16" rx="4" fill="#22c55e"/>
    <rect x="40" y="20" width="16" height="16" rx="4" fill="#16a34a"/>
    <rect x="60" y="20" width="16" height="16" rx="4" fill="#22c55e"/>
    <rect x="80" y="20" width="16" height="16" rx="4" fill="#15803d"/>
    <rect x="100" y="20" width="16" height="16" rx="4" fill="#052e16"/>
    <rect x="120" y="20" width="16" height="16" rx="4" fill="#022c22"/>
    <rect x="140" y="20" width="16" height="16" rx="4" fill="#14532d"/>
    <rect x="160" y="20" width="16" height="16" rx="4" fill="#16a34a"/>
    <rect x="180" y="20" width="16" height="16" rx="4" fill="#22c55e"/>
    <rect x="200" y="20" width="16" height="16" rx="4" fill="#4ade80"/>
    <rect x="220" y="20" width="16" height="16" rx="4" fill="#22c55e"/>
    <rect x="240" y="20" width="16" height="16" rx="4" fill="#16a34a"/>
    <rect x="260" y="20" width="16" height="16" rx="4" fill="#15803d"/>
  </g>
</svg>
